<svg width="34" height="34" viewBox="0 0 34 34" fill="none" xmlns="http://www.w3.org/2000/svg">
<path d="M33.4998 30.2556L33.122 29.9223C32.0503 28.9674 31.1122 27.8723 30.3331 26.6667C29.4822 25.0029 28.9723 23.1858 28.8331 21.3223V15.8334C28.8405 12.9063 27.7787 10.0772 25.8473 7.87779C23.9158 5.67834 21.2477 4.25988 18.3442 3.88893V2.45559C18.3442 2.06219 18.1879 1.6849 17.9098 1.40672C17.6316 1.12854 17.2543 0.97226 16.8609 0.97226C16.4675 0.97226 16.0902 1.12854 15.812 1.40672C15.5338 1.6849 15.3776 2.06219 15.3776 2.45559V3.91115C12.5001 4.30885 9.86419 5.73588 7.95815 7.92793C6.0521 10.12 5.00504 12.9285 5.01089 15.8334V21.3223C4.87173 23.1858 4.36176 25.0029 3.51089 26.6667C2.74521 27.8693 1.82222 28.9642 0.76645 29.9223L0.388672 30.2556V33.3889H33.4998V30.2556Z" fill="#707070"/>
</svg>


