<svg  class="svgPerfil" width="120" height="120" viewBox="0 0 64 64" fill="none" xmlns="http://www.w3.org/2000/svg">
            <path d="M32 0C14.336 0 0 14.336 0 32C0 49.664 14.336 64 32 64C49.664 64 64 49.664 64 32C64 14.336 49.664 0 32 0ZM32 9.6C37.312 9.6 41.6 13.888 41.6 19.2C41.6 24.512 37.312 28.8 32 28.8C26.688 28.8 22.4 24.512 22.4 19.2C22.4 13.888 26.688 9.6 32 9.6ZM32 55.04C28.198 55.04 24.455 54.0991 21.1049 52.3012C17.7548 50.5034 14.9017 47.9044 12.8 44.736C12.896 38.368 25.6 34.88 32 34.88C38.368 34.88 51.104 38.368 51.2 44.736C49.0983 47.9044 46.2452 50.5034 42.8951 52.3012C39.545 54.0991 35.802 55.04 32 55.04Z" fill="#BDBDBD"/>
            </svg>